<svg width="26" height="25" viewBox="0 0 26 25" fill="none" xmlns="http://www.w3.org/2000/svg">
<g clip-path="url(#clip0_10_151)">
<path fill-rule="evenodd" clip-rule="evenodd" d="M13 23C15.792 23 18.4696 21.8938 20.4439 19.9246C22.4181 17.9555 23.5273 15.2848 23.5273 12.5C23.5273 9.71523 22.4181 7.04451 20.4439 5.07538C18.4696 3.10625 15.792 2 13 2C10.208 2 7.53032 3.10625 5.55607 5.07538C3.58183 7.04451 2.47271 9.71523 2.47271 12.5C2.47271 15.2848 3.58183 17.9555 5.55607 19.9246C7.53032 21.8938 10.208 23 13 23ZM13 24.5C16.1908 24.5 19.251 23.2357 21.5073 20.9853C23.7636 18.7348 25.0311 15.6826 25.0311 12.5C25.0311 9.3174 23.7636 6.26516 21.5073 4.01472C19.251 1.76428 16.1908 0.5 13 0.5C9.80912 0.5 6.74894 1.76428 4.49266 4.01472C2.23638 6.26516 0.968811 9.3174 0.968811 12.5C0.968811 15.6826 2.23638 18.7348 4.49266 20.9853C6.74894 23.2357 9.80912 24.5 13 24.5Z" fill="#152536"/>
<path fill-rule="evenodd" clip-rule="evenodd" d="M7.41321 14.8504C7.58592 14.751 7.79116 14.724 7.98379 14.7755C8.17642 14.827 8.34066 14.9527 8.44038 15.1249C8.90224 15.9234 9.56687 16.5865 10.3674 17.0473C11.1678 17.5081 12.0759 17.7505 13.0002 17.7499C13.9244 17.7505 14.8325 17.5081 15.633 17.0473C16.4335 16.5865 17.0981 15.9234 17.56 15.1249C17.609 15.0389 17.6746 14.9635 17.753 14.9029C17.8313 14.8423 17.921 14.7977 18.0167 14.7718C18.1124 14.7459 18.2123 14.7391 18.3106 14.7519C18.4089 14.7646 18.5038 14.7966 18.5897 14.8461C18.6755 14.8955 18.7508 14.9615 18.811 15.04C18.8712 15.1186 18.9153 15.2083 18.9407 15.3039C18.966 15.3995 18.9721 15.4992 18.9587 15.5972C18.9453 15.6952 18.9125 15.7896 18.8624 15.8749C18.2685 16.9014 17.414 17.7538 16.3849 18.3463C15.3558 18.9388 14.1884 19.2505 13.0002 19.2499C11.812 19.2505 10.6445 18.9388 9.61543 18.3463C8.58633 17.7538 7.73186 16.9014 7.138 15.8749C7.03829 15.7027 7.01127 15.4979 7.06288 15.3058C7.1145 15.1137 7.24051 14.9499 7.41321 14.8504Z" fill="#152536"/>
<path d="M11.4961 10.25C11.4961 11.492 10.8223 12.5 9.99218 12.5C9.16203 12.5 8.48828 11.492 8.48828 10.25C8.48828 9.008 9.16203 8 9.99218 8C10.8223 8 11.4961 9.008 11.4961 10.25ZM17.5117 10.25C17.5117 11.492 16.8379 12.5 16.0078 12.5C15.1776 12.5 14.5039 11.492 14.5039 10.25C14.5039 9.008 15.1776 8 16.0078 8C16.8379 8 17.5117 9.008 17.5117 10.25Z" fill="#152536"/>
</g>
<defs>
<clipPath id="clip0_10_151">
<rect width="24.0623" height="24" fill="white" transform="translate(0.968811 0.5)"/>
</clipPath>
</defs>
</svg>
