<svg width="24" height="25" viewBox="0 0 24 25" fill="none" xmlns="http://www.w3.org/2000/svg">
<g clip-path="url(#clip0_29_225)">
<path fill-rule="evenodd" clip-rule="evenodd" d="M18.249 13.91C19.044 12.3005 19.5 10.793 19.5 9.5C19.5 7.51088 18.7098 5.60322 17.3033 4.1967C15.8968 2.79018 13.9891 2 12 2C10.0109 2 8.10322 2.79018 6.6967 4.1967C5.29018 5.60322 4.5 7.51088 4.5 9.5C4.5 10.793 4.9575 12.3005 5.751 13.91C6.537 15.503 7.602 17.09 8.691 18.515C9.72403 19.8584 10.8286 21.1453 12 22.37L12.312 22.04C13.368 20.9147 14.3682 19.7382 15.309 18.515C16.398 17.09 17.463 15.503 18.249 13.91ZM12 24.5C12 24.5 21 15.971 21 9.5C21 7.11305 20.0518 4.82387 18.364 3.13604C16.6761 1.44821 14.3869 0.5 12 0.5C9.61305 0.5 7.32387 1.44821 5.63604 3.13604C3.94821 4.82387 3 7.11305 3 9.5C3 15.971 12 24.5 12 24.5Z" fill="#152536"/>
<path fill-rule="evenodd" clip-rule="evenodd" d="M12 12.5C12.7956 12.5 13.5587 12.1839 14.1213 11.6213C14.6839 11.0587 15 10.2956 15 9.5C15 8.70435 14.6839 7.94129 14.1213 7.37868C13.5587 6.81607 12.7956 6.5 12 6.5C11.2044 6.5 10.4413 6.81607 9.87868 7.37868C9.31607 7.94129 9 8.70435 9 9.5C9 10.2956 9.31607 11.0587 9.87868 11.6213C10.4413 12.1839 11.2044 12.5 12 12.5ZM12 14C13.1935 14 14.3381 13.5259 15.182 12.682C16.0259 11.8381 16.5 10.6935 16.5 9.5C16.5 8.30653 16.0259 7.16193 15.182 6.31802C14.3381 5.47411 13.1935 5 12 5C10.8065 5 9.66193 5.47411 8.81802 6.31802C7.97411 7.16193 7.5 8.30653 7.5 9.5C7.5 10.6935 7.97411 11.8381 8.81802 12.682C9.66193 13.5259 10.8065 14 12 14Z" fill="#152536"/>
</g>
<defs>
<clipPath id="clip0_29_225">
<rect width="24" height="24" fill="white" transform="translate(0 0.5)"/>
</clipPath>
</defs>
</svg>
