<svg width="24" height="25" viewBox="0 0 24 25" fill="none" xmlns="http://www.w3.org/2000/svg">
<g clip-path="url(#clip0_29_228)">
<path fill-rule="evenodd" clip-rule="evenodd" d="M4.455 2.525C4.59583 2.36035 4.77066 2.22817 4.96745 2.13754C5.16425 2.04691 5.37834 1.99999 5.595 2H18.405C18.6217 1.99999 18.8358 2.04691 19.0325 2.13754C19.2293 2.22817 19.4042 2.36035 19.545 2.525L23.4585 7.091C23.8079 7.49875 24 8.01802 24 8.555V8.9375C24.0001 9.67996 23.7682 10.4039 23.3367 11.0081C22.9053 11.6124 22.2958 12.0667 21.5935 12.3076C20.8912 12.5485 20.1312 12.564 19.4197 12.3519C18.7082 12.1398 18.0807 11.7107 17.625 11.1245C17.2922 11.5532 16.8657 11.9 16.3783 12.1384C15.8908 12.3768 15.3552 12.5005 14.8125 12.5C14.2698 12.5006 13.7342 12.377 13.2467 12.1385C12.7592 11.9001 12.3327 11.5532 12 11.1245C11.6673 11.5532 11.2408 11.9001 10.7533 12.1385C10.2658 12.377 9.73019 12.5006 9.1875 12.5C8.64481 12.5006 8.10919 12.377 7.62168 12.1385C7.13416 11.9001 6.70771 11.5532 6.375 11.1245C5.91929 11.7107 5.29182 12.1398 4.58031 12.3519C3.86879 12.564 3.10877 12.5485 2.40649 12.3076C1.7042 12.0667 1.09473 11.6124 0.663273 11.0081C0.231813 10.4039 -8.18979e-05 9.67996 2.16968e-08 8.9375V8.555C1.89113e-05 8.01802 0.192085 7.49875 0.5415 7.091L4.4565 2.5235L4.455 2.525ZM7.125 8.9375C7.125 9.48451 7.3423 10.0091 7.72909 10.3959C8.11589 10.7827 8.64049 11 9.1875 11C9.73451 11 10.2591 10.7827 10.6459 10.3959C11.0327 10.0091 11.25 9.48451 11.25 8.9375C11.25 8.73859 11.329 8.54782 11.4697 8.40717C11.6103 8.26652 11.8011 8.1875 12 8.1875C12.1989 8.1875 12.3897 8.26652 12.5303 8.40717C12.671 8.54782 12.75 8.73859 12.75 8.9375C12.75 9.48451 12.9673 10.0091 13.3541 10.3959C13.7409 10.7827 14.2655 11 14.8125 11C15.3595 11 15.8841 10.7827 16.2709 10.3959C16.6577 10.0091 16.875 9.48451 16.875 8.9375C16.875 8.73859 16.954 8.54782 17.0947 8.40717C17.2353 8.26652 17.4261 8.1875 17.625 8.1875C17.8239 8.1875 18.0147 8.26652 18.1553 8.40717C18.296 8.54782 18.375 8.73859 18.375 8.9375C18.375 9.48451 18.5923 10.0091 18.9791 10.3959C19.3659 10.7827 19.8905 11 20.4375 11C20.9845 11 21.5091 10.7827 21.8959 10.3959C22.2827 10.0091 22.5 9.48451 22.5 8.9375V8.555C22.5 8.37624 22.4362 8.20336 22.32 8.0675L18.405 3.5H5.595L1.68 8.0675C1.56382 8.20336 1.49999 8.37624 1.5 8.555V8.9375C1.5 9.48451 1.7173 10.0091 2.10409 10.3959C2.49089 10.7827 3.01549 11 3.5625 11C4.10951 11 4.63411 10.7827 5.02091 10.3959C5.4077 10.0091 5.625 9.48451 5.625 8.9375C5.625 8.73859 5.70402 8.54782 5.84467 8.40717C5.98532 8.26652 6.17609 8.1875 6.375 8.1875C6.57391 8.1875 6.76468 8.26652 6.90533 8.40717C7.04598 8.54782 7.125 8.73859 7.125 8.9375V8.9375ZM2.25 13.25C2.44891 13.25 2.63968 13.329 2.78033 13.4697C2.92098 13.6103 3 13.8011 3 14V23H4.5V15.5C4.5 15.1022 4.65804 14.7206 4.93934 14.4393C5.22064 14.158 5.60218 14 6 14H10.5C10.8978 14 11.2794 14.158 11.5607 14.4393C11.842 14.7206 12 15.1022 12 15.5V23H21V14C21 13.8011 21.079 13.6103 21.2197 13.4697C21.3603 13.329 21.5511 13.25 21.75 13.25C21.9489 13.25 22.1397 13.329 22.2803 13.4697C22.421 13.6103 22.5 13.8011 22.5 14V23H23.25C23.4489 23 23.6397 23.079 23.7803 23.2197C23.921 23.3603 24 23.5511 24 23.75C24 23.9489 23.921 24.1397 23.7803 24.2803C23.6397 24.421 23.4489 24.5 23.25 24.5H0.75C0.551088 24.5 0.360322 24.421 0.21967 24.2803C0.0790177 24.1397 2.16968e-08 23.9489 2.16968e-08 23.75C2.16968e-08 23.5511 0.0790177 23.3603 0.21967 23.2197C0.360322 23.079 0.551088 23 0.75 23H1.5V14C1.5 13.8011 1.57902 13.6103 1.71967 13.4697C1.86032 13.329 2.05109 13.25 2.25 13.25V13.25ZM6 23H10.5V15.5H6V23ZM13.5 15.5C13.5 15.1022 13.658 14.7206 13.9393 14.4393C14.2206 14.158 14.6022 14 15 14H18C18.3978 14 18.7794 14.158 19.0607 14.4393C19.342 14.7206 19.5 15.1022 19.5 15.5V20C19.5 20.3978 19.342 20.7794 19.0607 21.0607C18.7794 21.342 18.3978 21.5 18 21.5H15C14.6022 21.5 14.2206 21.342 13.9393 21.0607C13.658 20.7794 13.5 20.3978 13.5 20V15.5ZM18 15.5H15V20H18V15.5Z" fill="#152536"/>
</g>
<defs>
<clipPath id="clip0_29_228">
<rect width="24" height="24" fill="white" transform="translate(0 0.5)"/>
</clipPath>
</defs>
</svg>
